<svg xmlns="http://www.w3.org/2000/svg" width="64" height="64" viewBox="0 0 64 64" role="img" aria-label="Vimeo">
  <rect width="64" height="64" rx="14" fill="#1ab7ea"/>
  <path d="M17 24c1.8-6.3 7.1-10 12.6-9.5 3.1.3 4.8 2.8 4.4 6.2-.8 6.6-5.6 15.2-9.9 21.6-2.7 3.9-5.7 6.3-8.7 6.3-2.3 0-3.7-1.7-4.8-5.1l-2.6-8.3c-.9-2.9-1.8-4.2-3-4.2-.6 0-1.4.3-2.4 1l-.8-1.1 9-7.8c2-1.7 3.8-2.2 5-2.2 2.9 0 4.5 2.5 5.3 7.1l1.9 10.1c.4 2.1 1 2.8 1.9 2.8 1.1 0 2.8-1.5 4.9-4.6 2.8-4 4.2-7.2 4.4-9 .2-1.8-.5-2.6-2.3-2.6-1 0-2 .2-3.3.7.7-2.6 2.1-4.7 4.3-6.1 1.9-1.3 3.9-1.8 6-1.6 4.5.4 6.7 3.7 6.1 8.7-1 8.9-9.3 20.8-18 27.6-3.7 2.9-7 4.2-10 4.2-3.7 0-6.5-2.9-8.5-8.7l-2.9-8.2c-.6-1.7-1.2-2.5-2.1-2.5-.6 0-1.3.3-2.1.8L1 33.9l16-9.9z" fill="#fff"/>
</svg>
